# xmcd CD database file
#
# Track frame offsets:
#        150
#        33210
#        56355
#        73597
#        90000
#        116317
#        141430
#        161985
#        186442
#
# Disc length: 2749 seconds
#
# Revision: 0
# Processed by: cddbd v1.5.2PL0 Copyright (c) Steve Scherf et al.
# Submitted via: CUERipper 2.1.1
#
DISCID=730abb09
DTITLE=Sade - Love Deluxe
DYEAR=1992
DGENRE=
TTITLE0=No Ordinary Love
TTITLE1=Feel No Pain
TTITLE2=I Couldn't Love You More
TTITLE3=Like a Tattoo
TTITLE4=Kiss of Life
TTITLE5=Cherish the Day
TTITLE6=Pearls
TTITLE7=Bullet Proof Soul
TTITLE8=Mermaid
EXTD=
EXTT0=
EXTT1=
EXTT2=
EXTT3=
EXTT4=
EXTT5=
EXTT6=
EXTT7=
EXTT8=
PLAYORDER=
